<svg version="1.1" id="Layer_1" xmlns="http://www.w3.org/2000/svg" xmlns:xlink="http://www.w3.org/1999/xlink" x="0px" y="0px"
	 width="100%" viewBox="0 0 448 352" enable-background="new 0 0 448 352" xml:space="preserve">
<path fill="#000000" opacity="1.000000" stroke="none" 
	d="
M198.911377,130.756775 
	C207.589661,133.215515 214.955444,137.141983 221.529495,143.471497 
	C218.012924,148.203323 213.487106,151.388550 209.656219,155.219376 
	C208.043686,156.831863 206.589157,154.914749 205.317078,154.032516 
	C196.361221,147.821365 186.467575,146.679947 176.203079,149.216522 
	C160.983261,152.977661 151.850891,166.174423 152.351639,182.932190 
	C152.778000,197.200729 164.539383,211.309006 178.747314,213.574295 
	C196.696808,216.436172 213.866837,212.366989 230.356949,205.663681 
	C264.634613,191.729706 290.407990,167.369064 311.911255,137.948135 
	C312.962036,136.510437 313.544403,134.646759 315.530090,133.760117 
	C316.664215,135.158066 315.539276,136.273056 314.962372,137.204514 
	C297.153961,165.959106 275.851715,191.535492 247.309357,210.316925 
	C229.740967,221.877274 210.924805,230.781479 189.683884,232.652802 
	C163.344406,234.973343 138.569717,222.117752 133.743591,190.685806 
	C130.992706,172.769623 134.802307,156.268814 148.023788,143.344849 
	C162.151001,129.535553 179.592667,126.607285 198.911377,130.756775 
z"/>
<path fill="#000000" opacity="1.000000" stroke="none" 
	d="
M239.020416,147.209564 
	C225.507172,146.990234 226.921600,149.139587 226.918381,135.457214 
	C226.916824,128.875565 226.980362,128.866959 233.697250,128.863419 
	C257.527039,128.850876 281.356842,128.816437 305.186554,128.847366 
	C307.275330,128.850067 309.506348,128.283478 312.145111,130.134262 
	C308.639282,135.902679 304.789795,141.373123 300.140991,146.265015 
	C298.909088,147.561371 297.021637,147.212723 295.364349,147.216553 
	C290.698456,147.227341 286.030426,147.305161 281.367371,147.189743 
	C278.353851,147.115128 277.099731,148.394745 277.291229,151.371521 
	C277.408661,153.196716 277.039886,155.081055 277.342560,156.861832 
	C279.108978,167.254349 275.443542,174.870987 266.180573,179.971191 
	C263.636566,181.371902 261.689758,183.819000 258.746307,184.710556 
	C257.082550,182.796234 257.699158,180.719482 257.683502,178.824814 
	C257.609222,169.826736 257.544098,160.826096 257.691803,151.829926 
	C257.748627,148.368698 256.472839,147.035324 253.011612,147.181885 
	C248.520569,147.372025 244.014938,147.217285 239.020416,147.209564 
z"/>
<path fill="#000000" opacity="1.000000" stroke="none" 
	d="
M277.308289,217.994766 
	C277.300690,221.978577 277.199066,225.466492 277.312805,228.947372 
	C277.411377,231.964630 276.006042,233.133102 273.121765,233.077148 
	C269.306580,233.003143 265.488892,233.030746 261.672485,233.055023 
	C258.754059,233.073578 257.419495,231.715118 257.635193,228.763382 
	C257.743744,227.277817 257.964203,225.698059 257.605225,224.296341 
	C253.381531,207.805084 266.014191,201.525314 277.307770,193.603317 
	C277.307770,201.567474 277.307770,209.531647 277.308289,217.994766 
z"/>
</svg>